# xmcd CD database file generated by Grip 3.3.1
# 
# Track frame offsets:
#       150
#       19385
#       38587
#       59047
#       77265
#       95890
#       113045
#       132137
#       153842
#       171357
#       190690
#       207855
#       226757
#       243317
# 
# Disc length: 3488 seconds
# 
# Revision: 2
# Processed by: cddbd v1.5.2PL0 Copyright (c) Steve Scherf et al.
# Submitted via: Grip 3.3.1
# 
DISCID=ae0d9e0e
DTITLE=Netinho - Rádio Brasil
DYEAR=1998
DGENRE=Samba
TTITLE0=Som Na Caixa
TTITLE1=Indecisão
TTITLE2=Lugar Nenhum
TTITLE3=Santo Regueiro
TTITLE4=Por Teu Beijo
TTITLE5=Por Mais Que Eu Tente
TTITLE6=Buá-Buá
TTITLE7=Bem Longe
TTITLE8=Circular 253
TTITLE9=Sonho Alegria
TTITLE10=Tão Bom
TTITLE11=Fica Comigo
TTITLE12=Bailarina
TTITLE13=Bruna
EXTD=
EXTT0=
EXTT1=
EXTT2=
EXTT3=
EXTT4=
EXTT5=
EXTT6=
EXTT7=
EXTT8=
EXTT9=
EXTT10=
EXTT11=
EXTT12=
EXTT13=
PLAYORDER=
